<svg width="18" height="18" viewBox="0 0 18 18" fill="none" xmlns="http://www.w3.org/2000/svg">
<path d="M7.27642 7.73692C9.13677 7.73692 10.6449 6.22881 10.6449 4.36846C10.6449 2.50811 9.13677 1 7.27642 1C5.41607 1 3.90796 2.50811 3.90796 4.36846C3.90796 6.22881 5.41607 7.73692 7.27642 7.73692Z" stroke="#1C274C" stroke-width="1.2"/>
<path opacity="0.5" d="M7.2764 17.0001C10.532 17.0001 13.1712 15.492 13.1712 13.6316C13.1712 11.7713 10.532 10.2632 7.2764 10.2632C4.02079 10.2632 1.38159 11.7713 1.38159 13.6316C1.38159 15.492 4.02079 17.0001 7.2764 17.0001Z" stroke="#1C274C" stroke-width="1.2"/>
<path d="M14.8555 1C14.8555 1 16.5397 2.01054 16.5397 4.36846C16.5397 6.72638 14.8555 7.73692 14.8555 7.73692" stroke="#1C274C" stroke-width="1.2" stroke-linecap="round"/>
<path d="M13.1711 2.68408C13.1711 2.68408 14.0133 3.18935 14.0133 4.36831C14.0133 5.54727 13.1711 6.05254 13.1711 6.05254" stroke="#1C274C" stroke-width="1.2" stroke-linecap="round"/>
</svg>
