<svg width="18" height="18" viewBox="0 0 18 18" fill="none" xmlns="http://www.w3.org/2000/svg">
<path d="M15.5849 9.5188L15.9991 7.97311C16.4825 6.16885 16.7242 5.26672 16.5422 4.48602C16.3985 3.86958 16.0752 3.3096 15.6132 2.87691C15.0281 2.32891 14.1259 2.08719 12.3217 1.60373C10.5174 1.12028 9.61524 0.878554 8.83459 1.06059C8.21812 1.20432 7.65813 1.52762 7.22545 1.98961C6.75626 2.49055 6.51159 3.22391 6.14749 4.55689C6.08635 4.78075 6.02183 5.02152 5.95232 5.28094L5.53812 6.82676C5.05466 8.63102 4.81294 9.53312 4.99498 10.3139C5.13871 10.9303 5.46201 11.4903 5.92399 11.923C6.50908 12.471 7.41123 12.7127 9.21551 13.1962C10.8418 13.6319 11.7351 13.8713 12.4672 13.781C12.5474 13.7711 12.6256 13.7573 12.7026 13.7393C13.319 13.5956 13.879 13.2723 14.3117 12.8103C14.8597 12.2252 15.1015 11.3231 15.5849 9.5188Z" stroke="#1C274C" stroke-width="1.2"/>
<path opacity="0.5" d="M12.4671 13.7807C12.3003 14.2916 12.007 14.7537 11.6126 15.1231C11.0275 15.6711 10.1254 15.9128 8.32115 16.3963C6.51685 16.8797 5.61472 17.1214 4.83401 16.9394C4.21758 16.7957 3.6576 16.4724 3.2249 16.0104C2.67691 15.4253 2.43518 14.5232 1.95173 12.7189L1.53757 11.1733C1.05411 9.36897 0.812392 8.46686 0.994428 7.68614C1.13816 7.06972 1.46146 6.50975 1.92344 6.07705C2.50853 5.52905 3.41067 5.28733 5.21494 4.80388C5.55629 4.71241 5.86534 4.6296 6.14739 4.55667" stroke="#1C274C" stroke-width="1.2"/>
<path d="M8.75626 7.40085L12.6204 8.43625" stroke="#1C274C" stroke-width="1.2" stroke-linecap="round"/>
<path opacity="0.5" d="M8.13464 9.71887L10.4531 10.3401" stroke="#1C274C" stroke-width="1.2" stroke-linecap="round"/>
</svg>
