<svg width="16" height="16" viewBox="0 0 16 16" fill="none" xmlns="http://www.w3.org/2000/svg">
<path fill-rule="evenodd" clip-rule="evenodd" d="M8 0C7.6213 0 7.31428 0.307008 7.31428 0.685715V2.88C7.31428 3.25871 7.6213 3.56572 8 3.56572C8.37869 3.56572 8.68571 3.25871 8.68571 2.88V0.685715C8.68571 0.307008 8.37869 0 8 0ZM16 8C16 7.62131 15.693 7.31429 15.3143 7.31429H13.12C12.7413 7.31429 12.4343 7.62131 12.4343 8C12.4343 8.3787 12.7413 8.68572 13.12 8.68572H15.3143C15.693 8.68572 16 8.3787 16 8ZM3.56571 8C3.56571 7.62131 3.25869 7.31429 2.87999 7.31429H0.685705C0.307008 7.31429 -9.53674e-06 7.62131 -9.53674e-06 8C-9.53674e-06 8.3787 0.307008 8.68572 0.685705 8.68572H2.87999C3.25869 8.68572 3.56571 8.3787 3.56571 8ZM8 12.4343C7.6213 12.4343 7.31428 12.7413 7.31428 13.12V15.3143C7.31428 15.693 7.6213 16 8 16C8.37869 16 8.68571 15.693 8.68571 15.3143V13.12C8.68571 12.7413 8.37869 12.4343 8 12.4343Z" fill="#FF964B"/>
<g opacity="0.5">
<path d="M2.34344 2.34272C2.07565 2.61051 2.07565 3.04468 2.34344 3.31246L3.89498 4.86406C4.16278 5.13185 4.59697 5.13185 4.86477 4.86406C5.13256 4.59628 5.13256 4.1621 4.86477 3.89431L3.31313 2.34272C3.04534 2.07493 2.61123 2.07493 2.34344 2.34272Z" fill="#FF964B"/>
<path d="M13.6573 2.34276C13.3895 2.07498 12.9553 2.07498 12.6875 2.34276L11.1359 3.89436C10.8681 4.16214 10.8681 4.59631 11.1359 4.86411C11.4037 5.13189 11.8379 5.13189 12.1057 4.86411L13.6573 3.31251C13.925 3.04472 13.925 2.61055 13.6573 2.34276Z" fill="#FF964B"/>
<path d="M11.1356 11.1351C10.8678 11.4029 10.8678 11.8371 11.1356 12.1049L12.6872 13.6565C12.955 13.9243 13.3892 13.9243 13.6569 13.6565C13.9247 13.3887 13.9247 12.9545 13.6569 12.6868L12.1054 11.1351C11.8376 10.8673 11.4034 10.8673 11.1356 11.1351Z" fill="#FF964B"/>
<path d="M4.86477 11.1357C4.59697 10.8679 4.16278 10.8679 3.89498 11.1357L2.34344 12.6872C2.07565 12.955 2.07565 13.3892 2.34344 13.657C2.61123 13.9248 3.04543 13.9248 3.31313 13.657L4.86477 12.1054C5.13256 11.8376 5.13256 11.4035 4.86477 11.1357Z" fill="#FF964B"/>
</g>
</svg>
