<svg width="16" height="16" viewBox="0 0 16 16" fill="none" xmlns="http://www.w3.org/2000/svg">
<path d="M6.00709 3.38578C6.89373 1.79522 7.33704 0.999939 7.99986 0.999939C8.66268 0.999939 9.10599 1.79521 9.9926 3.38577L10.222 3.79727C10.474 4.24925 10.5999 4.47525 10.7964 4.62436C10.9928 4.77348 11.2374 4.82882 11.7267 4.93953L12.1722 5.04031C13.8939 5.42988 14.7548 5.62466 14.9596 6.28329C15.1644 6.94189 14.5775 7.62823 13.4037 9.00078L13.1001 9.35588C12.7665 9.74592 12.5997 9.94094 12.5247 10.1822C12.4497 10.4235 12.4749 10.6837 12.5253 11.2041L12.5712 11.6779C12.7487 13.5092 12.8374 14.4249 12.3012 14.8319C11.765 15.239 10.9589 14.8678 9.34685 14.1256L8.9298 13.9335C8.47172 13.7226 8.24269 13.6172 7.99986 13.6172C7.75703 13.6172 7.52799 13.7226 7.06992 13.9335L6.65286 14.1256C5.04077 14.8678 4.23473 15.239 3.69851 14.8319C3.1623 14.4249 3.25103 13.5092 3.42849 11.6779L3.4744 11.2041C3.52483 10.6837 3.55005 10.4235 3.47501 10.1822C3.39999 9.94094 3.23322 9.74592 2.89966 9.35588L2.59599 9.00078C1.42221 7.62823 0.835316 6.94189 1.04013 6.28329C1.24495 5.62466 2.10583 5.42988 3.82759 5.04031L4.27303 4.93953C4.76229 4.82882 5.00692 4.77348 5.20335 4.62436C5.39977 4.47525 5.52576 4.24926 5.77771 3.79727L6.00709 3.38578Z" stroke="#5974CE" stroke-width="1.2"/>
</svg>
