<svg width="17" height="17" viewBox="0 0 17 17" fill="none" xmlns="http://www.w3.org/2000/svg">
<path d="M7.14511 13.2854C3.77318 13.2854 1 10.5437 1 7.14023C1 3.76831 3.74166 0.995117 7.14511 0.995117C10.5486 0.995117 13.2902 3.73679 13.2902 7.14023C13.2587 10.5437 10.517 13.2854 7.14511 13.2854ZM7.14511 1.90901C4.24588 1.90901 1.88237 4.27252 1.88237 7.17175C1.88237 10.071 4.24588 12.4345 7.14511 12.4345C10.0443 12.4345 12.4079 10.071 12.4079 7.17175C12.3763 4.27252 10.0128 1.90901 7.14511 1.90901Z" fill="#4E536D" stroke="#4E536D" stroke-width="0.4"/>
<path d="M15.3386 16.027L11.0528 11.7727L11.7461 11.0794L16.0004 15.3652L15.3386 16.027Z" fill="#4E536D" stroke="#4E536D" stroke-width="0.4"/>
</svg>
